<?xml version="1.0" standalone="no"?><!DOCTYPE svg PUBLIC "-//W3C//DTD SVG 1.1//EN" "http://www.w3.org/Graphics/SVG/1.1/DTD/svg11.dtd"><svg t="1605190529777" class="icon" viewBox="0 0 1024 1024" version="1.1" xmlns="http://www.w3.org/2000/svg" p-id="1736" xmlns:xlink="http://www.w3.org/1999/xlink" width="200" height="200"><defs><style type="text/css"></style></defs><path d="M149.333333 298.666667l725.333333 0c12.8 0 21.333333-8.533333 21.333333-21.333333s-8.533333-21.333333-21.333333-21.333333L149.333333 256c-12.8 0-21.333333 8.533333-21.333333 21.333333S136.533333 298.666667 149.333333 298.666667zM234.666667 213.333333l554.666667 0c12.8 0 21.333333-8.533333 21.333333-21.333333s-8.533333-21.333333-21.333333-21.333333L234.666667 170.666667c-12.8 0-21.333333 8.533333-21.333333 21.333333S221.866667 213.333333 234.666667 213.333333zM789.333333 725.333333l-42.666667 0c-12.8 0-21.333333 8.533333-21.333333 21.333333s8.533333 21.333333 21.333333 21.333333l42.666667 0c12.8 0 21.333333-8.533333 21.333333-21.333333S802.133333 725.333333 789.333333 725.333333zM277.333333 426.666667l-42.666667 0c-12.8 0-21.333333 8.533333-21.333333 21.333333 0 12.8 8.533333 21.333333 21.333333 21.333333l42.666667 0c12.8 0 21.333333-8.533333 21.333333-21.333333C298.666667 435.2 290.133333 426.666667 277.333333 426.666667zM938.666667 341.333333 85.333333 341.333333c-23.466667 0-42.666667 19.2-42.666667 42.666667l0 426.666667c0 23.466667 19.2 42.666667 42.666667 42.666667l853.333333 0c23.466667 0 42.666667-19.2 42.666667-42.666667L981.333333 384C981.333333 360.533333 962.133333 341.333333 938.666667 341.333333zM106.666667 384c12.8 0 21.333333 8.533333 21.333333 21.333333s-8.533333 21.333333-21.333333 21.333333-21.333333-8.533333-21.333333-21.333333S93.866667 384 106.666667 384zM106.666667 810.666667c-12.8 0-21.333333-8.533333-21.333333-21.333333 0-12.8 8.533333-21.333333 21.333333-21.333333s21.333333 8.533333 21.333333 21.333333C128 802.133333 119.466667 810.666667 106.666667 810.666667zM917.333333 810.666667c-12.8 0-21.333333-8.533333-21.333333-21.333333 0-12.8 8.533333-21.333333 21.333333-21.333333s21.333333 8.533333 21.333333 21.333333C938.666667 802.133333 930.133333 810.666667 917.333333 810.666667zM938.666667 729.6c-6.4-2.133333-12.8-4.266667-21.333333-4.266667-36.266667 0-64 27.733333-64 64 0 8.533333 2.133333 14.933333 4.266667 21.333333L166.4 810.666667C168.533333 804.266667 170.666667 797.866667 170.666667 789.333333c0-36.266667-27.733333-64-64-64-8.533333 0-14.933333 2.133333-21.333333 4.266667L85.333333 465.066667C91.733333 467.2 98.133333 469.333333 106.666667 469.333333c36.266667 0 64-27.733333 64-64 0-8.533333-2.133333-14.933333-4.266667-21.333333l691.2 0c-2.133333 6.4-4.266667 12.8-4.266667 21.333333 0 36.266667 27.733333 64 64 64 8.533333 0 14.933333-2.133333 21.333333-4.266667L938.666667 729.6zM917.333333 426.666667c-12.8 0-21.333333-8.533333-21.333333-21.333333s8.533333-21.333333 21.333333-21.333333 21.333333 8.533333 21.333333 21.333333S930.133333 426.666667 917.333333 426.666667zM512 426.666667c-93.866667 0-170.666667 76.8-170.666667 170.666667s76.8 170.666667 170.666667 170.666667c93.866667 0 170.666667-76.8 170.666667-170.666667S605.866667 426.666667 512 426.666667zM558.933333 567.466667l-8.533333 19.2-76.8 0c0 0 0 2.133333 0 4.266667s0 4.266667 0 6.4c0 4.266667 0 8.533333 0 8.533333l72.533333 0-8.533333 19.2-61.866667 0c2.133333 14.933333 8.533333 27.733333 14.933333 36.266667 8.533333 10.666667 21.333333 17.066667 38.4 17.066667 10.666667 0 19.2-2.133333 25.6-4.266667 6.4-2.133333 12.8-8.533333 21.333333-14.933333l0 32c-14.933333 8.533333-29.866667 12.8-46.933333 12.8-27.733333 0-49.066667-8.533333-66.133333-23.466667-12.8-14.933333-21.333333-32-25.6-55.466667l-23.466667 0 8.533333-19.2 14.933333 0c0-2.133333 0-2.133333 0-4.266667 0-2.133333 0-4.266667 0-4.266667 0-2.133333 0-2.133333 0-4.266667 0-2.133333 0-4.266667 0-6.4l-23.466667 0 8.533333-19.2 17.066667 0c4.266667-23.466667 14.933333-40.533333 27.733333-53.333333 17.066667-14.933333 36.266667-23.466667 61.866667-23.466667 19.2 0 36.266667 6.4 55.466667 19.2l-14.933333 27.733333c-12.8-12.8-27.733333-19.2-44.8-19.2-14.933333 0-25.6 4.266667-34.133333 14.933333-8.533333 8.533333-12.8 21.333333-14.933333 34.133333L558.933333 567.466667z" p-id="1737"></path></svg>